<?xml version="1.0" encoding="utf-8"?>
<!-- Generator: Adobe Illustrator 18.1.1, SVG Export Plug-In . SVG Version: 6.00 Build 0)  -->
<!DOCTYPE svg PUBLIC "-//W3C//DTD SVG 1.1//EN" "http://www.w3.org/Graphics/SVG/1.1/DTD/svg11.dtd">
<svg version="1.1" 
    xmlns="http://www.w3.org/2000/svg" 
    xmlns:xlink="http://www.w3.org/1999/xlink" xml:space="preserve" style="display: none;">
    <symbol id="bitcoin" viewBox="0 0 64 64">
        <g transform="translate(0.00630876,-0.00301984)">
            <path fill="#f7931a" d="m63.033,39.744c-4.274,17.143-21.637,27.576-38.782,23.301-17.138-4.274-27.571-21.638-23.295-38.78,4.272-17.145,21.635-27.579,38.775-23.305,17.144,4.274,27.576,21.64,23.302,38.784z"/>
            <path fill="#FFF" d="m46.103,27.444c0.637-4.258-2.605-6.547-7.038-8.074l1.438-5.768-3.511-0.875-1.4,5.616c-0.923-0.23-1.871-0.447-2.813-0.662l1.41-5.653-3.509-0.875-1.439,5.766c-0.764-0.174-1.514-0.346-2.242-0.527l0.004-0.018-4.842-1.209-0.934,3.75s2.605,0.597,2.55,0.634c1.422,0.355,1.679,1.296,1.636,2.042l-1.638,6.571c0.098,0.025,0.225,0.061,0.365,0.117-0.117-0.029-0.242-0.061-0.371-0.092l-2.296,9.205c-0.174,0.432-0.615,1.08-1.609,0.834,0.035,0.051-2.552-0.637-2.552-0.637l-1.743,4.019,4.569,1.139c0.85,0.213,1.683,0.436,2.503,0.646l-1.453,5.834,3.507,0.875,1.439-5.772c0.958,0.26,1.888,0.5,2.798,0.726l-1.434,5.745,3.511,0.875,1.453-5.823c5.987,1.133,10.489,0.676,12.384-4.739,1.527-4.36-0.076-6.875-3.226-8.515,2.294-0.529,4.022-2.038,4.483-5.155zm-8.022,11.249c-1.085,4.36-8.426,2.003-10.806,1.412l1.928-7.729c2.38,0.594,10.012,1.77,8.878,6.317zm1.086-11.312c-0.99,3.966-7.1,1.951-9.082,1.457l1.748-7.01c1.982,0.494,8.365,1.416,7.334,5.553z"/>
        </g>
    </symbol>
    <symbol id="litecoin" viewBox="0.847 0.876 329.254 329.256">>
        <path d="M330.102 165.503c0 90.922-73.705 164.629-164.626 164.629C74.554 330.132.848 256.425.848 165.503.848 74.582 74.554.876 165.476.876c90.92 0 164.626 73.706 164.626 164.627" fill="#bebebe"/>
        <path d="M295.15 165.505c0 71.613-58.057 129.675-129.674 129.675-71.616 0-129.677-58.062-129.677-129.675 0-71.619 58.061-129.677 129.677-129.677 71.618 0 129.674 58.057 129.674 129.677" fill="#bebebe"/>
        <path d="M155.854 209.482l10.693-40.264 25.316-9.249 6.297-23.663-.215-.587-24.92 9.104 17.955-67.608h-50.921l-23.481 88.23-19.605 7.162-6.478 24.395 19.59-7.156-13.839 51.998h135.521l8.688-32.362h-84.601" fill="#fff"/>
    </symbol>
    <symbol id="etherum" viewBox="-2.77410003 -2.77410003 98.01820106 156.13971006">
        <path d="M 46.22125,55.68413 0,76.69288 46.22125,104.01413 92.4425,76.69288 46.22125,55.68413 z" id="path3078" style="opacity:0.60000598;fill:#010101;fill-opacity:1;fill-rule:nonzero;stroke:none" />
        <path d="m 3.7e-4,76.6925 46.22125,27.32125 0,-48.33 L 46.22162,0 3.7e-4,76.6925 z" id="path3094" style="opacity:0.44999701;fill:#010101;fill-opacity:1;fill-rule:nonzero;stroke:none" />
        <path d="m 46.22125,0 0,55.68375 0,48.33 L 92.4425,76.6925 46.22125,0 z" id="path3110" style="opacity:0.80000299;fill:#010101;fill-opacity:1;fill-rule:nonzero;stroke:none" />
        <path d="m 3.7e-4,85.45725 46.22125,65.13375 0,-37.82625 L 3.7e-4,85.45725 z" id="path3126" style="opacity:0.44999701;fill:#010101;fill-opacity:1;fill-rule:nonzero;stroke:none" />
        <path d="m 46.22125,112.76525 0,37.82625 L 92.47,85.45775 46.22125,112.76525 z" id="path3142" style="opacity:0.80000299;fill:#010101;fill-opacity:1;fill-rule:nonzero;stroke:none" />
    </symbol>
</svg>