<?xml version="1.0" encoding="utf-8"?>
<!-- Generator: Adobe Illustrator 18.1.1, SVG Export Plug-In . SVG Version: 6.00 Build 0)  -->
<!DOCTYPE svg PUBLIC "-//W3C//DTD SVG 1.1//EN" "http://www.w3.org/Graphics/SVG/1.1/DTD/svg11.dtd">
<svg version="1.1" 
    xmlns="http://www.w3.org/2000/svg" 
    xmlns:xlink="http://www.w3.org/1999/xlink" xml:space="preserve" style="display: none;">
    <symbol id="dashboard" viewBox="0 0 20 20">
        <path d="M8,4H5C4.447,4,4,4.447,4,5v3c0,0.552,0.447,1,1,1h3c0.553,0,1-0.448,1-1V5C9,4.448,8.553,4,8,4z M15,4h-3	c-0.553,0-1,0.447-1,1v3c0,0.552,0.447,1,1,1h3c0.553,0,1-0.448,1-1V5C16,4.448,15.553,4,15,4z M8,11H5c-0.553,0-1,0.447-1,1v3	c0,0.552,0.447,1,1,1h3c0.553,0,1-0.448,1-1v-3C9,11.448,8.553,11,8,11z M15,11h-3c-0.553,0-1,0.447-1,1v3c0,0.552,0.447,1,1,1h3	c0.553,0,1-0.448,1-1v-3C16,11.448,15.553,11,15,11z"/>
    </symbol>
    <symbol id="swap" viewBox="0 0 20 20">
        <path d="M15.093,6.694h0.92v2.862L20,5.532l-3.988-4.025v2.387h-0.92c-3.694,0-5.776,2.738-7.614,5.152	c-1.652,2.172-3.08,4.049-5.386,4.049H0v2.799h2.093c3.694,0,5.776-2.736,7.614-5.152C11.359,8.569,12.787,6.694,15.093,6.694z	 M5.41,8.458c0.158-0.203,0.316-0.412,0.477-0.623c0.39-0.514,0.804-1.055,1.252-1.596C5.817,5.005,4.224,4.095,2.093,4.095H0v2.799	h2.093C3.42,6.894,4.455,7.517,5.41,8.458z M16.012,13.294h-0.92c-1.407,0-2.487-0.701-3.491-1.738	c-0.1,0.131-0.201,0.264-0.303,0.397c-0.441,0.58-0.915,1.201-1.439,1.818c1.356,1.324,3,2.324,5.232,2.324h0.92v2.398L20,14.468	l-3.988-4.025C16.012,10.443,16.012,13.294,16.012,13.294z"/>
    </symbol>
    <symbol id="wallet" viewBox="0 0 20 20">
        <path d="M16,6H3.5V5.5l11-0.88V5.5H16V4c0-1.1-0.891-1.872-1.979-1.717L3.98,3.717C2.891,3.873,2,4.9,2,6v10	c0,1.104,0.895,2,2,2h12c1.104,0,2-0.896,2-2V8C18,6.896,17.104,6,16,6z M14.5,13.006c-0.828,0-1.5-0.672-1.5-1.5s0.672-1.5,1.5-1.5	s1.5,0.672,1.5,1.5S15.328,13.006,14.5,13.006z"/>
    </symbol>
    <symbol id="briefcase" viewBox="0 0 20 20">
        <path d="M9,10h2v2h9c0,0-0.149-4.459-0.2-5.854C19.75,4.82,19.275,4,17.8,4h-3.208	c-0.497-0.938-1.032-1.945-1.197-2.256C13.064,1.121,12.951,1,12.216,1H7.783C7.048,1,6.936,1.121,6.604,1.744	C6.439,2.055,5.904,3.062,5.408,4H2.199c-1.476,0-1.945,0.82-2,2.146C0.145,7.473,0,12,0,12h9V10z M7.649,2.916	C7.879,2.484,7.957,2.4,8.466,2.4h3.067c0.509,0,0.588,0.084,0.816,0.516c0.086,0.16,0.318,0.6,0.575,1.084h-5.85	C7.331,3.516,7.563,3.076,7.649,2.916z M11,15H9v-2H0.5c0,0,0.124,1.797,0.199,3.322C0.73,16.955,0.917,18,2.499,18H17.5	c1.582,0,1.765-1.047,1.8-1.678C19.387,14.754,19.5,13,19.5,13H11V15z"/>
    </symbol>
    <symbol id="cog" viewBox="0 0 20 20">
        <path d="M16.783,10c0-1.049,0.646-1.875,1.617-2.443c-0.176-0.584-0.407-1.145-0.692-1.672	c-1.089,0.285-1.97-0.141-2.711-0.883c-0.741-0.74-0.968-1.621-0.683-2.711c-0.527-0.285-1.088-0.518-1.672-0.691	C12.074,2.57,11.047,3.215,10,3.215c-1.048,0-2.074-0.645-2.643-1.615C6.772,1.773,6.213,2.006,5.686,2.291	c0.285,1.09,0.059,1.971-0.684,2.711C4.262,5.744,3.381,6.17,2.291,5.885C2.006,6.412,1.774,6.973,1.6,7.557	C2.57,8.125,3.215,8.951,3.215,10c0,1.047-0.645,2.074-1.615,2.643c0.175,0.584,0.406,1.144,0.691,1.672	c1.09-0.285,1.971-0.059,2.711,0.682c0.741,0.742,0.969,1.623,0.684,2.711c0.527,0.285,1.087,0.518,1.672,0.693	c0.568-0.973,1.595-1.617,2.643-1.617c1.047,0,2.074,0.645,2.643,1.617c0.584-0.176,1.144-0.408,1.672-0.693	c-0.285-1.088-0.059-1.969,0.683-2.711c0.741-0.74,1.622-1.166,2.711-0.883c0.285-0.527,0.517-1.086,0.692-1.672	C17.429,11.873,16.783,11.047,16.783,10z M10,13.652c-2.018,0-3.653-1.635-3.653-3.652c0-2.018,1.636-3.654,3.653-3.654	c2.018,0,3.652,1.637,3.652,3.654C13.652,12.018,12.018,13.652,10,13.652z"/>
    </symbol>
</svg>